<svg version="1.1" xmlns="http://www.w3.org/2000/svg" width="1024" height="1024" viewBox="0 0 1024 1024">
<title>Horizontal Digital - Component Reference Library</title>
<path fill="#000" d="M768.049 127.576c85.161 0 170.297 0 255.456 0 0.119 2.743 0.354 5.485 0.354 8.228 0.023 250.775 0 501.55 0.142 752.325 0 6.218-1.040 8.488-8.063 8.463-80.125-0.284-160.249-0.26-240.372-0.047-6.123 0.023-8.038-1.419-7.991-7.779 0.284-40.050 0.047-80.076 0.26-120.128 0.023-5.792-1.466-7.589-7.495-7.589-165.521 0.165-331.018 0.165-496.539 0-5.769 0-6.998 1.703-6.974 7.163 0.237 39.554 0.165 79.085 0.095 118.637-0.023 11.064 1.324 9.505-9.575 9.528-82.37 0.095-164.765 0.095-247.134 0.142 0-253.897 0.047-507.768-0.212-761.665 0-6.856 2.033-7.472 7.896-7.447 82.584 0.189 165.165 0.142 247.749 0.142 2.010 2.671 1.254 5.792 1.254 8.724 0.047 38.514-0.023 77.026 0.047 115.54 0.023 11.206-1.845 10.355 10.426 10.355 163.132 0.023 326.266 0.023 489.398 0.023 2.010 0 4.020-0.095 6.004 0 3.452 0.165 5.106-1.277 4.894-4.846-0.142-2.482-0.023-4.988 0-7.495 0.142-40.759 0.26-81.518 0.379-122.279z"></path>
</svg>
